<svg width="86" height="105" viewBox="0 0 86 105" fill="none" xmlns="http://www.w3.org/2000/svg">
<path d="M85.2573 52.272C85.2573 69.3756 85.2573 86.4793 85.2573 103.591C85.2573 104.574 85.2319 104.591 84.2662 104.557C83.8002 104.54 83.3343 104.557 82.8684 104.557C72.1436 104.557 61.4104 104.557 50.6857 104.557C47.8478 104.557 45.0353 104.337 42.2652 103.744C38.9105 103.024 35.6067 102.126 32.4045 100.847C27.076 98.7204 22.3575 95.6284 17.9778 91.9603C15.7244 90.0712 13.6235 88.0126 11.7937 85.7169C9.64199 83.0145 7.65969 80.1766 6.05861 77.093C4.27115 73.6367 2.68701 70.0957 1.78904 66.3005C1.31465 64.3182 0.848722 62.3359 0.543753 60.3113C0.247256 58.3459 0.154071 56.3806 0.043943 54.4068C-0.0831275 52.1449 0.103242 49.8915 0.128656 47.6381C0.145599 46.6046 0.34044 45.5542 0.518338 44.5207C0.687765 43.5041 0.865664 42.496 1.07745 41.4879C1.4756 39.6158 1.97541 37.7775 2.53452 35.9477C3.43248 33.0081 4.75401 30.2549 6.16026 27.5271C7.43096 25.062 9.09135 22.8425 10.6247 20.5468C12.014 18.4797 13.7082 16.7092 15.4449 14.9557C18.1642 12.2109 21.1969 9.86438 24.4753 7.83972C26.7541 6.43348 29.0414 5.0357 31.5489 4.05302C34.0225 3.08729 36.5131 2.13849 39.0969 1.53703C41.9687 0.867796 44.8489 0.249388 47.8224 0.0884302C49.3811 0.00372099 50.9483 0.00372092 52.507 0.00372085C63.003 -0.00475587 73.4991 0.00371993 83.9951 0.00371947C84.2492 0.00371946 84.5033 0.00371945 84.7575 0.0121881C85.0879 0.0291329 85.2573 0.198559 85.2658 0.528942C85.2658 0.740727 85.2658 0.952511 85.2658 1.1643C85.2658 18.2087 85.2658 35.2445 85.2658 52.2889L85.2573 52.272ZM4.27962 45.0036C4.27962 46.1641 5.25383 47.1892 6.38052 47.2146C7.34625 47.2315 8.55765 46.0116 8.54918 45.0205C8.54918 43.9785 7.42249 42.8349 6.38052 42.8264C5.25383 42.8179 4.27962 43.826 4.27115 45.0036L4.27962 45.0036ZM49.415 98.6865C49.415 99.8386 50.3892 100.77 51.5328 100.855C52.668 100.94 53.71 99.6268 53.693 98.7289C53.6761 97.6191 52.6765 96.5687 51.5667 96.5602C50.4316 96.5602 49.415 97.5598 49.415 98.6865ZM22.654 14.71C22.654 15.9468 23.4842 16.8194 24.6617 16.8278C25.8985 16.8278 26.8304 15.9129 26.8304 14.6761C26.8304 13.5833 25.8223 12.5667 24.7295 12.5413C23.7129 12.5074 22.4761 13.6341 22.6455 14.71L22.654 14.71ZM21.2562 19.4539C21.2562 18.3188 20.2566 17.2429 19.1807 17.2345C18.1472 17.226 17.1052 18.2934 17.0883 19.3947C17.0629 20.5383 18.0456 21.5972 19.1468 21.6226C20.2481 21.648 21.2562 20.6145 21.2562 19.4624L21.2562 19.4539ZM78.0312 98.6357C78.0312 99.8471 78.98 100.796 80.1575 100.864C81.191 100.923 82.2415 99.8471 82.2161 98.678C82.1907 97.509 81.2758 96.5602 80.1406 96.5687C78.9715 96.5687 78.0397 97.4921 78.0312 98.6442L78.0312 98.6357ZM67.891 98.7119C67.891 97.5005 67.0185 96.5602 65.8833 96.5687C64.7143 96.5687 63.7146 97.5768 63.7146 98.7543C63.7146 99.8556 64.7058 100.847 65.824 100.855C67.0015 100.864 67.891 99.9488 67.891 98.7119ZM6.33816 57.3887C5.19453 57.3971 4.25421 58.4052 4.27962 59.5912C4.30503 60.7603 5.28771 61.7345 6.44829 61.6836C7.55803 61.6328 8.52377 60.7264 8.50683 59.4557C8.48988 58.2866 7.43944 57.4226 6.33816 57.3971L6.33816 57.3887ZM21.2562 85.1493C21.2562 83.921 20.3752 82.9891 19.2061 82.9806C18.0117 82.9722 17.0883 83.8871 17.0798 85.0815C17.0798 86.2167 18.0964 87.2926 19.1807 87.2671C20.3074 87.2417 21.4002 86.115 21.2562 85.1493ZM39.512 96.4247C39.512 95.281 38.5801 94.2814 37.4873 94.2645C36.3183 94.256 35.3271 95.2472 35.3271 96.4416C35.3271 97.5344 36.2844 98.534 37.3518 98.551C38.5886 98.5679 39.512 97.653 39.5205 96.4247L39.512 96.4247ZM51.6006 3.77347C50.3299 3.77347 49.4235 4.6206 49.4235 5.80659C49.4235 6.99258 50.4061 7.96679 51.6006 7.96679C52.6849 7.96679 53.693 6.93329 53.6846 5.84048C53.6761 4.67991 52.7527 3.77347 51.5921 3.765L51.6006 3.77347ZM12.3782 79.5582C12.3782 80.7611 13.2931 81.7184 14.4622 81.7099C15.5974 81.7099 16.5546 80.7103 16.5631 79.5328C16.5716 78.4569 15.5889 77.4234 14.5469 77.415C13.2931 77.4065 12.3867 78.296 12.3782 79.5497L12.3782 79.5582ZM80.1067 3.77346C78.8784 3.77346 78.0312 4.5952 78.0228 5.78965C78.0228 7.02647 78.9461 7.98373 80.1491 7.96679C81.3096 7.94985 82.2076 7.02647 82.2076 5.84895C82.2076 4.5952 81.3689 3.77347 80.1067 3.765L80.1067 3.77346ZM32.7857 93.6376C32.7857 92.4601 31.8369 91.4774 30.6848 91.4774C29.592 91.4774 28.6009 92.5278 28.6009 93.68C28.6009 94.849 29.5327 95.7639 30.7441 95.7724C31.8369 95.7724 32.7773 94.7982 32.7857 93.6376ZM10.1079 66.6394C10.1079 65.4873 9.19301 64.4622 8.12562 64.4114C7.04975 64.3691 5.94001 65.4788 5.93153 66.6224C5.93153 67.7322 6.92268 68.7572 8.01549 68.7657C9.21842 68.7657 10.1079 67.8762 10.1079 66.6394ZM39.5035 8.12775C39.5035 6.92482 38.5378 5.95908 37.3433 5.97603C36.2929 5.99297 35.3187 7.00954 35.3187 8.09386C35.3187 9.31374 36.2082 10.2371 37.4026 10.2456C38.5971 10.2456 39.495 9.34762 39.5035 8.12775ZM7.82912 52.2635C7.82912 50.9928 6.99892 50.1541 5.76211 50.1711C4.59306 50.1796 3.6951 51.1453 3.67815 52.4075C3.66968 53.3902 4.77096 54.4491 5.80446 54.4491C6.97351 54.4491 7.82912 53.5257 7.82912 52.2635ZM32.7857 10.9657C32.7857 9.79661 31.8369 8.75463 30.7441 8.74615C29.6259 8.72922 28.6093 9.74578 28.6009 10.8809C28.6009 12.0839 29.4988 13.0242 30.6764 13.0327C31.8285 13.0411 32.7773 12.1178 32.7857 10.9741L32.7857 10.9657ZM14.4368 27.1036C15.6143 27.1036 16.5716 26.1717 16.5631 25.0112C16.5631 23.8252 15.6312 22.9103 14.4283 22.9103C13.2254 22.9103 12.3867 23.7574 12.3867 24.9773C12.3867 26.2141 13.2338 27.0951 14.4452 27.1036L14.4368 27.1036ZM22.6455 89.8678C22.6455 91.0454 23.5858 91.9857 24.7549 91.9857C25.8307 91.9857 26.8304 90.9522 26.8304 89.8424C26.8304 88.7242 25.7799 87.6653 24.6956 87.6907C23.4927 87.7161 22.6455 88.6226 22.6455 89.8678ZM75.1001 98.7882C75.1086 97.4158 74.3377 96.5602 73.084 96.5517C71.9319 96.5517 71.0508 97.4666 71.0424 98.6781C71.0424 99.9488 71.881 100.838 73.1009 100.838C74.2445 100.838 75.0917 99.9742 75.1001 98.7882ZM10.1164 37.9808C10.2943 36.888 9.08288 35.7613 8.13409 35.8206C6.90574 35.8969 5.94 36.7186 5.94 37.8961C5.94 38.8788 6.80408 40.0986 8.05784 40.0393C9.29466 39.9885 10.1079 39.2261 10.1079 37.9808L10.1164 37.9808ZM67.891 5.93367C67.908 4.67991 67.1032 3.79889 65.9341 3.78194C64.6719 3.765 63.7146 4.69685 63.7231 5.94214C63.7231 7.06036 64.6719 7.92444 65.8664 7.99221C66.7559 8.04303 68.052 7.03495 67.8995 5.94214L67.891 5.93367ZM73.1094 3.78194C71.8387 3.78194 71.0593 4.53589 71.0508 5.79813C71.0424 7.1366 71.8387 7.97526 73.1263 7.97526C74.2107 7.97526 75.1001 7.0773 75.1086 5.96755C75.1086 4.52742 74.4394 3.78194 73.1178 3.78194L73.1094 3.78194ZM8.71861 73.3318C8.71014 74.4584 9.7267 75.5004 10.8364 75.5089C11.7514 75.5089 12.7594 74.4161 12.751 73.408C12.751 72.366 11.7259 71.1292 10.8449 71.1123C9.87919 71.0868 8.72708 72.2898 8.71861 73.3318ZM60.665 98.6865C60.665 97.5259 59.7924 96.5602 58.7589 96.5602C57.7423 96.5602 56.6495 97.5937 56.6495 98.551C56.6495 99.7878 57.6153 100.855 58.725 100.847C59.8009 100.847 60.6734 99.8725 60.665 98.6865ZM42.4261 6.27252C42.3922 7.52628 43.2394 8.55979 44.2983 8.57673C45.3403 8.59367 46.4416 7.52628 46.4585 6.4843C46.4839 5.40845 45.4673 4.34105 44.4 4.30717C43.3749 4.27328 42.4515 5.19666 42.4261 6.27252ZM42.4261 98.1189C42.4261 99.2287 43.3665 100.279 44.3915 100.305C45.3403 100.321 46.45 99.144 46.467 98.1105C46.4839 97.0854 45.3318 95.9672 44.2644 95.9672C43.3665 95.9672 42.4261 97.077 42.4261 98.1274L42.4261 98.1189ZM60.6734 5.89131C60.6734 4.67991 59.8432 3.77347 58.7335 3.78194C57.6492 3.78194 56.6495 4.77309 56.6495 5.83201C56.6495 6.94175 57.6407 7.95832 58.7335 7.96679C59.7585 7.98373 60.665 7.00953 60.6734 5.89131ZM8.72708 31.1275C8.68472 32.1779 9.68434 33.2114 10.667 33.33C11.7768 33.4656 12.7425 32.1949 12.7594 31.1783C12.7764 30.238 11.8107 29.0689 10.955 29.035C9.9046 28.9842 8.76944 30.0601 8.72708 31.1275Z" fill="white" fill-opacity="0.7"/>
<path d="M42.4033 50.0439C41.8825 50.0114 41.2803 49.987 40.5967 49.9707C39.9294 49.9544 39.2132 49.9463 38.4482 49.9463C38.3343 51.46 38.2367 53.0306 38.1553 54.6582C38.0902 56.2695 38.0332 57.9134 37.9844 59.5898C37.9355 61.25 37.903 62.9264 37.8867 64.6191C37.8704 66.2956 37.8623 67.9557 37.8623 69.5996C37.8623 71.4714 37.8704 73.2861 37.8867 75.0439C37.9193 76.7855 37.9762 78.4701 38.0576 80.0977H32.8574C33.0039 77.3307 33.1178 74.3848 33.1992 71.2598C33.2806 68.1348 33.3213 64.9854 33.3213 61.8115C33.3213 59.7445 33.2969 57.7262 33.248 55.7568C33.1992 53.7874 33.1504 51.8669 33.1016 49.9951C32.3203 49.9951 31.5798 50.0033 30.8799 50.0195C30.18 50.0358 29.5534 50.0602 29 50.0928L29.0488 44.9902C29.6348 45.0391 30.2939 45.0798 31.0264 45.1123C31.7588 45.1286 32.5238 45.1449 33.3213 45.1611C34.1351 45.1774 34.9652 45.1937 35.8115 45.21C36.6579 45.21 37.488 45.21 38.3018 45.21C39.1156 45.21 39.8805 45.21 40.5967 45.21C41.3291 45.21 41.9801 45.1937 42.5498 45.1611L42.4033 50.0439Z" fill="#002E7D"/>
<path d="M60.665 62.9102C60.665 66.1816 60.4372 68.9567 59.9814 71.2354C59.542 73.514 58.9398 75.3695 58.1748 76.8018C57.4098 78.2178 56.5065 79.2513 55.4648 79.9023C54.4232 80.5371 53.3083 80.8545 52.1201 80.8545C50.932 80.8545 49.8171 80.5534 48.7754 79.9512C47.7337 79.3327 46.8223 78.3236 46.041 76.9238C45.2598 75.5241 44.6413 73.6768 44.1855 71.3818C43.7461 69.0869 43.5264 66.263 43.5264 62.9102C43.5264 59.541 43.7461 56.6846 44.1855 54.3408C44.6413 51.9808 45.2598 50.0684 46.041 48.6035C46.8223 47.1224 47.7337 46.0563 48.7754 45.4053C49.8171 44.738 50.932 44.4043 52.1201 44.4043C53.3083 44.4043 54.4232 44.7298 55.4648 45.3809C56.5065 46.0156 57.4098 47.0654 58.1748 48.5303C58.9398 49.9951 59.542 51.9076 59.9814 54.2676C60.4372 56.6113 60.665 59.4922 60.665 62.9102ZM55.2207 62.9102C55.2207 60.3548 55.1393 58.1982 54.9766 56.4404C54.8138 54.6826 54.5859 53.2585 54.293 52.168C54.0163 51.0612 53.6908 50.2637 53.3164 49.7754C52.9421 49.2871 52.5433 49.043 52.1201 49.043C51.6807 49.043 51.2656 49.2952 50.875 49.7998C50.5007 50.2881 50.167 51.0856 49.874 52.1924C49.5973 53.2829 49.3776 54.7152 49.2148 56.4893C49.0521 58.2471 48.9707 60.3874 48.9707 62.9102C48.9707 65.4167 49.0521 67.5244 49.2148 69.2334C49.3776 70.9261 49.5973 72.2933 49.874 73.335C50.167 74.3604 50.5007 75.0928 50.875 75.5322C51.2656 75.9717 51.6807 76.1914 52.1201 76.1914C52.5433 76.1914 52.9421 75.9635 53.3164 75.5078C53.6908 75.0358 54.0163 74.279 54.293 73.2373C54.5859 72.1794 54.8138 70.804 54.9766 69.1113C55.1393 67.4186 55.2207 65.3516 55.2207 62.9102Z" fill="#002E7D"/>
<path d="M77.8281 55.7568C77.8281 57.1566 77.641 58.5319 77.2666 59.8828C76.9085 61.2174 76.347 62.4544 75.582 63.5938C74.8333 64.7331 73.8812 65.7422 72.7256 66.6211C71.57 67.4837 70.2028 68.1429 68.624 68.5986C68.6566 70.568 68.6973 72.5212 68.7461 74.458C68.8112 76.3786 68.8844 78.291 68.9658 80.1953H63.0088C63.2692 76.5007 63.4564 72.806 63.5703 69.1113C63.7005 65.4167 63.7656 61.6976 63.7656 57.9541C63.7656 55.7894 63.7493 53.6328 63.7168 51.4844C63.6842 49.3197 63.6191 47.1387 63.5215 44.9414C64.3841 44.681 65.2549 44.5101 66.1338 44.4287C67.029 44.3473 67.7858 44.3066 68.4043 44.3066C68.8438 44.3066 69.3809 44.3555 70.0156 44.4531C70.6667 44.5508 71.334 44.7461 72.0176 45.0391C72.7174 45.3158 73.4092 45.7145 74.0928 46.2354C74.7926 46.7399 75.4193 47.4235 75.9727 48.2861C76.526 49.1325 76.9736 50.166 77.3154 51.3867C77.6572 52.6074 77.8281 54.0641 77.8281 55.7568ZM68.624 64.4482C69.1611 64.2529 69.625 63.9925 70.0156 63.667C70.4225 63.3415 70.7725 62.9834 71.0654 62.5928C71.3747 62.1859 71.627 61.7546 71.8223 61.2988C72.0339 60.8431 72.2048 60.3955 72.335 59.9561C72.6442 58.9307 72.8232 57.8158 72.8721 56.6113C72.8721 56.5951 72.8639 56.4079 72.8477 56.0498C72.8477 55.6917 72.807 55.2441 72.7256 54.707C72.6605 54.1536 72.5465 53.5514 72.3838 52.9004C72.221 52.2331 71.9932 51.5983 71.7002 50.9961C71.4235 50.3939 71.0573 49.8568 70.6016 49.3848C70.1621 48.8965 69.6169 48.5547 68.9658 48.3594C68.8356 50.8822 68.7461 53.4131 68.6973 55.9521C68.6484 58.4749 68.624 61.0221 68.624 63.5938V64.4482Z" fill="#002E7D"/>
<g clip-path="url(#clip0_15_38)">
<path d="M36.0566 34.667L52.2035 21.9467L70.7759 34.667" stroke="#002E7D" stroke-width="2.83" stroke-linecap="round" stroke-linejoin="round"/>
</g>
<defs>
<clipPath id="clip0_15_38">
<rect width="14" height="36" fill="white" transform="translate(35.4141 35.3066) rotate(-90)"/>
</clipPath>
</defs>
</svg>
